<?xml version="1.0" standalone="no"?>
<!DOCTYPE svg PUBLIC "-//W3C//DTD SVG 20010904//EN"
 "http://www.w3.org/TR/2001/REC-SVG-20010904/DTD/svg10.dtd">
<svg version="1.0" xmlns="http://www.w3.org/2000/svg"
 width="512.000000pt" height="512.000000pt" viewBox="0 0 512.000000 512.000000"
 preserveAspectRatio="xMidYMid meet">

<g transform="translate(0.000000,512.000000) scale(0.100000,-0.100000)"
fill="#000000" stroke="none">
<path d="M2325 5109 c-502 -51 -966 -238 -1358 -546 -107 -83 -362 -344 -444
-453 -216 -289 -371 -617 -451 -955 -53 -221 -66 -343 -66 -600 0 -185 5 -257
22 -370 25 -160 77 -365 128 -504 46 -125 168 -373 239 -485 136 -215 342
-448 540 -611 777 -639 1859 -764 2754 -319 259 129 438 254 639 449 214 206
371 415 502 667 456 879 367 1924 -231 2725 -94 125 -366 397 -490 490 -352
263 -748 430 -1172 494 -153 23 -473 33 -612 18z m821 -1304 c346 -60 647
-256 841 -547 252 -379 280 -855 75 -1263 -116 -233 -324 -441 -558 -560 -102
-52 -258 -105 -309 -105 -46 0 -75 29 -75 75 0 30 8 41 83 103 276 231 411
496 424 832 6 162 -10 271 -61 415 -125 350 -406 604 -774 702 -84 22 -119 26
-257 27 -98 0 -182 -4 -216 -12 -68 -15 -101 -4 -120 39 -19 48 1 79 89 132
105 63 219 110 343 141 132 32 138 33 295 35 80 0 166 -5 220 -14z m-1661
-257 c20 -9 42 -44 90 -144 56 -116 67 -133 92 -138 15 -3 80 -13 143 -22 124
-17 144 -24 160 -54 25 -46 13 -66 -100 -177 l-110 -108 25 -149 c26 -148 26
-150 7 -175 -39 -53 -57 -51 -205 27 l-136 72 -138 -72 c-134 -69 -139 -71
-168 -57 -54 26 -58 48 -29 209 l25 143 -110 112 c-121 122 -132 145 -88 189
18 18 45 25 147 40 69 9 135 20 148 23 18 4 38 36 87 133 77 154 100 175 160
148z m1013 -734 c12 -8 43 -57 69 -107 25 -51 50 -95 55 -98 5 -3 54 -12 109
-19 110 -14 135 -27 145 -78 6 -30 1 -38 -79 -120 l-85 -87 19 -109 c16 -95
16 -112 4 -136 -29 -55 -65 -53 -184 10 l-94 50 -98 -50 c-99 -51 -126 -58
-159 -40 -35 19 -39 59 -19 171 l18 103 -84 87 c-47 48 -85 94 -85 103 0 27
28 74 47 80 10 2 54 10 98 16 131 18 120 11 169 114 56 120 97 150 154 110z
m-874 -717 c10 -8 42 -58 70 -113 l51 -99 107 -15 c123 -18 148 -33 148 -89 0
-31 -10 -46 -81 -117 l-81 -82 16 -95 c21 -122 20 -136 -6 -164 -32 -35 -70
-29 -173 27 l-92 50 -96 -51 c-110 -58 -147 -61 -180 -17 -20 26 -20 28 -2
138 l18 111 -82 83 c-67 69 -81 89 -81 115 0 56 31 75 147 91 56 7 106 16 111
19 5 3 31 49 57 101 26 52 55 100 64 107 21 16 63 16 85 0z"/>
</g>
</svg>
